<?xml version="1.0" standalone="no"?>
<!DOCTYPE svg PUBLIC "-//W3C//DTD SVG 20010904//EN"
 "http://www.w3.org/TR/2001/REC-SVG-20010904/DTD/svg10.dtd">
<svg version="1.0" xmlns="http://www.w3.org/2000/svg"
 width="600.000000pt" height="567.000000pt" viewBox="0 0 600.000000 567.000000"
 preserveAspectRatio="xMidYMid meet">

<g transform="translate(0.000000,567.000000) scale(0.100000,-0.100000)"
fill="#000000" stroke="none">
<path d="M2825 5380 c-38 -10 -114 -34 -167 -54 -54 -20 -104 -33 -112 -30 -8
3 -34 -5 -58 -17 -44 -23 -258 -101 -338 -123 -27 -8 -46 -20 -48 -30 -2 -9
-4 -16 -6 -16 -12 0 -232 -103 -256 -120 -27 -19 -38 -21 -89 -15 -55 6 -59 5
-79 -20 -11 -14 -23 -39 -27 -55 -4 -18 -20 -38 -46 -54 -33 -22 -39 -32 -39
-60 0 -19 8 -44 19 -57 l18 -22 31 22 c31 21 38 37 44 91 2 17 10 26 25 28 24
4 47 -25 68 -86 11 -31 11 -38 -1 -45 -30 -17 -11 -25 49 -19 36 3 97 19 147
40 82 33 212 81 590 217 96 35 196 73 222 85 l48 21 142 -89 c79 -49 172 -104
207 -122 137 -68 511 -280 680 -384 136 -83 160 -104 196 -173 l27 -51 -25
-34 c-37 -50 -62 -103 -97 -213 -18 -54 -43 -121 -56 -149 -35 -75 -32 -109
12 -143 20 -15 81 -64 136 -108 155 -125 158 -127 198 -121 99 14 516 31 743
30 l257 0 0 47 c0 50 -20 151 -47 233 l-15 49 -65 -6 -65 -6 7 27 c3 15 9 37
12 50 6 26 16 25 -192 22 -197 -2 -193 -1 -197 -58 -3 -47 -3 -47 -42 -50 -86
-7 -83 -14 -88 182 -6 223 -8 226 -112 226 -47 0 -77 5 -83 13 -6 6 -16 37
-23 67 -32 139 -120 309 -197 382 -23 22 -209 114 -286 141 -18 7 -18 16 0 64
3 7 -16 25 -41 40 -150 90 -231 143 -313 204 -50 38 -96 69 -102 69 -5 0 -15
-8 -20 -17 -6 -10 -11 -13 -11 -7 0 6 -43 42 -94 78 -52 37 -108 81 -124 97
-49 50 -190 63 -317 29z m346 -151 c74 -50 145 -83 165 -75 11 4 12 2 4 -14
-5 -10 -10 -23 -10 -28 0 -6 35 -29 78 -52 101 -54 302 -188 302 -200 0 -6
-17 -3 -37 6 -67 29 -384 155 -530 210 -169 63 -185 71 -181 89 4 21 121 114
136 109 7 -2 40 -22 73 -45z m-722 -65 c-19 -14 -68 -44 -109 -66 -116 -64
-342 -199 -376 -225 -40 -30 -78 -29 -109 2 -28 27 -32 45 -11 45 19 0 194 87
234 117 26 20 36 22 47 13 11 -9 28 -4 82 25 66 35 248 114 267 115 6 0 -6
-12 -25 -26z m1624 -581 c19 -22 30 -64 19 -80 -15 -24 -57 -25 -85 -3 -33 26
-34 46 -5 77 26 27 49 29 71 6z m149 -518 c-5 -76 -45 -295 -56 -308 -8 -9
-36 -11 -94 -9 l-83 4 7 31 c13 64 57 194 88 260 l31 68 55 -3 55 -3 -3 -40z
m177 39 l32 -7 -3 -183 c-2 -100 -5 -185 -8 -188 -3 -3 -32 -2 -64 1 l-58 6 6
51 c3 28 8 98 11 156 3 58 8 120 11 138 5 34 14 37 73 26z"/>
<path d="M2703 4348 c4 -149 7 -762 7 -1362 l0 -1091 105 0 105 0 0 1281 0
1282 -47 30 c-27 17 -70 54 -98 82 -81 83 -79 89 -72 -222z"/>
<path d="M1611 4531 c-9 -6 -12 -26 -10 -67 4 -58 4 -58 -27 -64 -34 -7 -106
-54 -141 -92 -12 -13 -31 -45 -43 -71 -62 -140 -13 -296 117 -369 108 -61 233
-41 324 51 85 88 109 179 73 285 -21 62 -102 150 -165 178 l-48 23 -3 65 c-3
64 -3 65 -33 68 -16 1 -36 -2 -44 -7z"/>
<path d="M3052 3113 l3 -1218 105 -3 105 -3 -1 1130 0 1129 -50 40 c-27 22
-71 63 -99 91 -27 28 -53 51 -57 51 -5 0 -7 -548 -6 -1217z"/>
<path d="M3390 2972 l0 -1079 105 1 105 1 1 978 c1 537 2 982 3 987 1 12 -191
190 -205 190 -5 0 -9 -449 -9 -1078z"/>
<path d="M2254 3979 c-21 -23 -65 -54 -98 -71 l-58 -29 73 -77 c40 -42 77 -81
81 -86 5 -6 21 2 40 20 42 39 136 112 150 116 6 2 -25 41 -69 86 l-80 81 -39
-40z"/>
<path d="M910 3971 c-46 -65 -103 -230 -134 -388 -38 -195 -49 -330 -43 -535
4 -163 9 -199 41 -337 63 -273 145 -498 254 -698 l67 -123 41 0 c23 0 56 3 74
6 30 7 32 9 27 40 -3 19 -22 60 -41 91 -46 75 -166 355 -205 478 -38 116 -86
329 -101 447 -7 52 -10 177 -8 315 5 260 18 341 93 567 23 70 40 137 38 147
-4 14 -15 19 -43 19 -31 0 -43 -6 -60 -29z"/>
<path d="M3724 3704 c3 -9 6 -420 6 -915 l0 -899 108 5 107 5 3 819 2 820 -32
22 c-18 13 -65 54 -105 91 -70 66 -101 85 -89 52z"/>
<path d="M1580 3630 c0 -58 15 -91 51 -110 16 -9 25 -6 49 12 26 21 29 28 29
88 l1 65 -65 0 -65 0 0 -55z"/>
<path d="M2505 3655 c-33 -13 -77 -26 -97 -30 l-37 -7 3 -726 c2 -400 4 -789
5 -864 l1 -138 100 0 c55 0 100 3 100 8 0 4 1 406 3 895 1 586 -1 887 -8 886
-5 0 -37 -11 -70 -24z"/>
<path d="M2023 3120 c4 -249 7 -628 7 -840 l0 -388 108 3 107 3 1 148 c1 82
-1 422 -4 756 l-5 607 -99 78 c-54 43 -104 80 -110 82 -8 3 -10 -116 -5 -449z"/>
<path d="M1241 3399 l-74 -80 101 -102 101 -101 23 30 c12 16 47 55 76 86 l54
57 -97 93 c-54 51 -100 94 -104 95 -3 1 -39 -34 -80 -78z"/>
<path d="M1775 3440 c-10 -46 2 -70 35 -70 16 0 35 -3 44 -6 13 -5 16 3 16 50
l0 56 -44 0 c-41 0 -45 -2 -51 -30z"/>
<path d="M4070 2654 c0 -695 1 -766 16 -760 9 3 57 6 107 6 l92 0 4 678 3 678
-35 27 c-20 15 -64 52 -99 82 -35 30 -69 55 -75 55 -10 0 -13 -157 -13 -766z"/>
<path d="M4270 3410 c0 -19 101 -108 154 -135 l49 -24 241 5 c217 6 289 13
372 39 19 6 22 2 28 -35 8 -48 -8 -305 -29 -470 -34 -267 -164 -626 -283 -782
-27 -35 -52 -74 -56 -86 -7 -21 -5 -22 68 -24 42 -1 83 -2 92 -2 9 -1 23 20
38 55 12 30 34 71 48 90 32 42 106 205 146 324 78 227 125 557 134 930 l3 100
-45 8 c-25 4 -251 10 -502 14 -357 4 -458 3 -458 -7z"/>
<path d="M1680 3165 l0 -65 70 0 70 0 0 65 0 65 -70 0 -70 0 0 -65z"/>
<path d="M4410 2517 l0 -623 103 0 104 1 6 254 c4 140 7 381 7 537 l0 282 -42
25 c-24 14 -70 53 -103 86 -33 34 -63 61 -67 61 -4 0 -8 -280 -8 -623z"/>
<path d="M1447 2963 l-48 -4 3 -57 3 -57 63 -3 62 -3 0 43 c0 24 3 53 6 66 5
18 3 22 -17 20 -13 -1 -46 -3 -72 -5z"/>
<path d="M1795 2919 c-49 -16 -95 -29 -102 -29 -15 0 -16 -85 -6 -632 l6 -368
104 3 103 2 2 145 c3 287 -4 895 -11 902 -3 3 -46 -7 -96 -23z"/>
<path d="M1123 2797 l-43 -51 48 -51 47 -51 45 42 c25 22 52 43 60 46 8 3 13
7 10 10 -3 2 -32 27 -65 54 l-60 51 -42 -50z"/>
<path d="M1498 2610 c-27 -11 -69 -29 -95 -39 l-48 -19 0 -325 c0 -179 2 -328
5 -330 3 -3 50 -3 105 0 l100 6 4 287 c3 272 -4 441 -18 440 -3 -1 -27 -10
-53 -20z"/>
<path d="M5245 2146 c-44 -19 -85 -72 -85 -107 0 -39 22 -81 60 -113 44 -36
86 -34 128 5 63 59 70 129 20 184 -38 40 -80 51 -123 31z m76 -49 c60 -46 38
-147 -32 -147 -66 0 -96 98 -43 139 30 24 52 26 75 8z"/>
<path d="M5265 2080 c-10 -11 -18 -36 -19 -57 -1 -35 1 -38 29 -41 35 -4 55
18 55 63 0 53 -33 71 -65 35z m35 -50 c-22 -31 -40 -39 -40 -18 0 17 31 48 47
48 11 0 9 -8 -7 -30z"/>
<path d="M770 1645 c-93 -30 -159 -114 -160 -203 0 -46 21 -105 48 -135 28
-32 107 -66 200 -88 97 -23 112 -32 112 -64 0 -70 -130 -69 -241 1 -21 13 -43
24 -48 24 -5 0 -19 -17 -32 -37 -12 -21 -31 -48 -42 -60 -24 -27 -15 -41 50
-80 101 -59 244 -79 334 -48 64 23 104 59 135 120 23 48 26 64 21 117 -9 99
-54 142 -196 184 -141 41 -156 48 -159 71 -2 14 5 27 23 39 35 23 102 14 174
-23 l57 -29 38 70 c43 81 44 78 -54 124 -68 32 -190 40 -260 17z"/>
<path d="M1250 1300 l0 -350 90 0 90 0 0 140 0 140 130 0 130 0 0 -140 0 -140
90 0 90 0 0 350 0 350 -90 0 -90 0 0 -125 0 -125 -130 0 -130 0 0 125 0 125
-90 0 -90 0 0 -350z"/>
<path d="M2007 1559 c-4 -51 -7 -208 -7 -351 l0 -258 90 0 90 0 2 325 c1 179
2 335 2 348 1 21 -3 22 -85 25 l-86 3 -6 -92z"/>
<path d="M2326 1642 c-2 -4 -5 -162 -5 -350 l0 -342 90 0 89 0 0 103 c1 93 3
104 25 130 13 15 26 27 28 27 2 0 19 -21 38 -47 18 -27 65 -85 102 -130 l69
-83 109 0 108 0 -59 78 c-32 42 -97 124 -144 182 -84 102 -95 123 -77 134 5 3
23 30 40 60 17 30 37 58 44 63 8 4 18 15 23 24 20 36 81 102 114 125 l35 24
-98 2 c-53 0 -101 1 -105 2 -5 1 -43 -39 -84 -89 -42 -49 -97 -112 -123 -140
l-46 -50 5 143 6 142 -90 0 c-49 0 -91 -4 -94 -8z"/>
<path d="M3042 1303 l3 -348 88 -3 87 -3 0 97 c0 92 1 98 29 129 l28 33 52
-72 c28 -39 76 -97 107 -129 l54 -58 185 2 184 3 22 63 23 63 133 0 134 0 30
-65 29 -65 95 0 c52 0 95 3 95 8 0 4 -22 57 -49 117 -27 61 -81 193 -121 295
-39 102 -81 206 -92 233 l-20 47 -92 0 -92 0 -56 -137 c-31 -76 -77 -192 -103
-258 -54 -136 -111 -255 -123 -255 -9 0 -129 139 -177 205 -16 22 -44 58 -62
79 -18 22 -33 43 -33 46 0 4 23 33 51 66 28 32 69 81 92 108 23 27 62 69 87
93 l45 43 -106 0 -105 0 -120 -134 -119 -135 -3 140 -3 139 -89 0 -90 0 2
-347z m1035 44 c17 -45 35 -90 38 -99 6 -16 -1 -18 -75 -18 -74 0 -82 2 -76
18 33 87 72 182 76 182 3 0 19 -38 37 -83z"/>
<path d="M4478 1549 c-1 -57 -1 -215 0 -351 l4 -248 84 0 84 0 2 58 c1 31 3
80 4 107 l1 50 55 3 55 3 64 -106 64 -107 103 -3 c77 -2 100 0 95 9 -5 6 -35
52 -69 101 -92 136 -90 129 -48 154 24 15 43 38 62 78 61 133 12 275 -113 329
-32 14 -79 18 -242 22 l-201 4 -4 -103z m381 -85 c25 -21 31 -33 31 -65 0 -67
-22 -79 -140 -79 l-100 0 0 85 0 85 89 0 c82 0 92 -2 120 -26z"/>
<path d="M5190 1300 l0 -350 90 0 90 0 -2 348 -3 347 -87 3 -88 3 0 -351z"/>
<path d="M3584 723 c-29 -4 -35 -11 -81 -116 -28 -62 -62 -137 -76 -169 l-26
-56 50 -7 c55 -8 66 -3 71 35 3 23 8 25 57 28 79 5 97 -2 105 -39 6 -31 6 -31
53 -24 27 4 50 8 51 10 5 4 -76 186 -121 275 -35 68 -36 69 -83 63z m35 -173
l21 -40 -35 0 c-19 0 -35 4 -35 9 0 11 21 71 25 71 2 0 12 -18 24 -40z"/>
<path d="M1906 698 c-3 -13 -6 -89 -6 -170 l0 -148 29 0 c16 0 36 -3 45 -6 13
-5 16 3 16 48 0 30 3 58 7 62 9 8 103 -84 103 -101 0 -9 18 -13 60 -13 45 0
60 4 60 14 0 13 -104 136 -138 163 -13 11 -5 23 57 93 l73 80 -52 0 c-51 0
-54 -1 -111 -62 l-58 -63 -1 63 0 62 -39 0 c-32 0 -40 -4 -45 -22z"/>
<path d="M2436 688 c-8 -18 -41 -93 -75 -166 -34 -73 -61 -138 -61 -143 0 -6
22 -9 53 -7 48 3 52 5 55 29 3 22 9 28 40 33 83 13 102 9 118 -29 14 -34 16
-35 70 -35 66 0 68 -12 -21 173 -34 73 -65 142 -69 155 -6 18 -14 22 -52 22
-40 0 -45 -3 -58 -32z m72 -131 c17 -46 16 -47 -23 -47 -39 0 -42 8 -20 50 20
38 28 38 43 -3z"/>
<path d="M2810 550 l0 -170 45 0 45 0 0 170 0 170 -45 0 -45 0 0 -170z"/>
<path d="M3050 672 l0 -48 40 4 40 4 2 -83 c1 -46 2 -102 2 -124 l1 -40 47 -3
47 -3 3 123 3 123 38 3 c30 3 37 7 37 25 0 12 3 32 6 45 l6 22 -136 0 -136 0
0 -48z"/>
<path d="M3940 550 l0 -170 51 0 52 0 -7 31 c-3 17 -6 94 -6 170 l0 139 -45 0
-45 0 0 -170z"/>
<path d="M636 627 c-13 -9 -17 -23 -14 -52 2 -33 7 -40 30 -46 16 -4 148 -6
295 -4 148 2 311 4 364 5 l97 0 4 33 c3 17 8 39 12 48 11 24 -54 29 -435 29
-258 0 -339 -3 -353 -13z"/>
<path d="M4623 633 c-16 -3 -22 -13 -26 -46 -2 -23 -1 -45 3 -50 3 -4 177 -6
386 -5 l379 3 3 53 3 52 -363 -1 c-200 -1 -373 -4 -385 -6z"/>
</g>
</svg>
